<svg width="477" height="435" viewBox="0 0 477 435" fill="none" xmlns="http://www.w3.org/2000/svg">
<path d="M477 235.776C477 219.36 464.586 206.053 449.272 206.053H401.851C297.873 206.053 213.582 296.407 213.582 407.865C213.582 422.851 224.915 435 238.896 435H295.228C395.618 435 477 347.763 477 240.151V235.776Z" fill="#1A78DC"/>
<path fill-rule="evenodd" clip-rule="evenodd" d="M26.5083 0C11.868 0 0 12.722 0 28.4154C0 118.092 67.8186 190.789 151.477 190.789H455.906C467.555 190.789 477 180.666 477 168.177C477 75.2956 406.759 0 320.109 0H26.5083ZM64.0746 80.1316C77.8372 80.1316 88.9925 68.1729 88.9925 53.421C88.9925 38.6692 77.8372 26.7105 64.0746 26.7105C50.3121 26.7105 39.1567 38.6692 39.1567 53.421C39.1567 68.1729 50.3121 80.1316 64.0746 80.1316Z" fill="#1A78DC"/>
</svg>
