<svg width="202" height="56" viewBox="0 0 202 56" fill="none" xmlns="http://www.w3.org/2000/svg">
<path d="M27.5826 49.2231H27.5828L27.5869 49.2182C29.9543 46.4934 31.1091 43.0621 31.0058 39.4255V5.25639C31.0058 4.59869 30.7699 4.06477 30.3848 3.69675C30.0057 3.33462 29.5073 3.15729 29.0175 3.15729C28.5272 3.15729 28.0264 3.33513 27.6462 3.70717C27.2605 4.08452 27.029 4.63149 27.029 5.30905V39.485V39.5377H27.0288L27.0294 39.555C27.1267 42.1751 26.3029 44.5334 24.6026 46.4966C22.222 49.2135 18.4547 50.4937 14.9051 50.3404H14.9051L14.8974 50.3403C11.0192 50.2385 7.39945 48.4097 5.15077 45.1183L5.14899 45.1156C4.73695 44.5211 4.21829 44.1698 3.67118 44.0582C3.12669 43.9471 2.59421 44.0828 2.18181 44.388C1.33306 45.016 1.05987 46.2831 1.89803 47.4927C4.88402 51.8332 9.64914 54.2701 14.7684 54.4327C19.4587 54.5944 24.3259 52.8687 27.5826 49.2231Z" fill="#2F80EC" stroke="#2F80EC" stroke-width="0.5"/>
<path d="M52.3644 52.7325L70.855 12.4677L89.802 53.5246H89.8018L89.8054 53.5319C90.385 54.7327 91.6013 54.9686 92.496 54.5309C92.9399 54.3138 93.3137 53.9285 93.4906 53.4141C93.6695 52.8951 93.6333 52.2883 93.3359 51.6555C93.3355 51.6547 93.3353 51.654 93.335 51.6534L71.2742 3.78959L70.8526 2.875L70.4332 3.79062L48.7286 51.1799C48.071 52.5463 48.4443 53.8524 49.4278 54.3334C49.9087 54.5686 50.4808 54.5649 51.0156 54.291C51.5453 54.02 52.015 53.499 52.364 52.7333C52.364 52.7331 52.3642 52.7327 52.3644 52.7325Z" fill="#2F80EC" stroke="#2F80EC" stroke-width="0.5"/>
<path d="M108.366 54.2218V54.6885H108.829H137.195C138.598 54.6885 139.4 53.687 139.4 52.6421C139.4 52.1287 139.205 51.6098 138.804 51.2201C138.399 50.8273 137.817 50.5957 137.094 50.5957H112.343V5.61728C112.343 4.93971 112.111 4.39274 111.726 4.0154C111.345 3.64335 110.845 3.46552 110.354 3.46552C109.864 3.46552 109.366 3.64285 108.987 4.00498C108.602 4.37299 108.366 4.90692 108.366 5.56462V54.2218Z" fill="#2F80EC" stroke="#2F80EC" stroke-width="0.5"/>
<path d="M159.375 52.7326L177.866 12.4678L196.813 53.5246L196.817 53.5319C197.397 54.7327 198.612 54.9687 199.507 54.5309C199.95 54.3138 200.325 53.9286 200.501 53.4141C200.68 52.8952 200.643 52.2883 200.347 51.6555C200.347 51.6548 200.347 51.654 200.345 51.6535L178.285 3.78963L177.864 2.8761L177.444 3.79028L155.687 51.1827C155.687 51.1829 155.687 51.1833 155.687 51.1834C155.054 52.5549 155.449 53.8569 156.434 54.3342C156.917 54.5683 157.489 54.5651 158.025 54.2912C158.556 54.0202 159.026 53.499 159.375 52.7335C159.375 52.7331 159.375 52.7328 159.375 52.7326Z" fill="#2F80EC" stroke="#2F80EC" stroke-width="0.5"/>
</svg>
