<svg width="119" height="119" viewBox="0 0 119 119" fill="none" xmlns="http://www.w3.org/2000/svg">
<circle cx="59.5" cy="59.5" r="59.5" fill="#1B77DF" fill-opacity="0.4"/>
<g filter="url(#filter0_i_801_1813)">
<circle cx="59.5" cy="59.5" r="48.8433" fill="#1A78DC"/>
</g>
<path d="M49.6252 85.0902L43.1493 72.9344H41.3308V85.0902H33.7461V52.8889H46.476C48.9303 52.8889 51.0149 53.3323 52.73 54.2191C54.4746 55.106 55.7757 56.3292 56.6332 57.8888C57.4908 59.4178 57.9195 61.1303 57.9195 63.0263C57.9195 65.167 57.3281 67.0783 56.1453 68.7602C54.9921 70.4421 53.277 71.6348 51.0002 72.3381L58.1857 85.0902H49.6252ZM41.3308 67.3841H46.0324C47.4222 67.3841 48.4571 67.0324 49.1372 66.329C49.8469 65.6257 50.2018 64.6318 50.2018 63.3474C50.2018 62.1242 49.8469 61.1609 49.1372 60.4576C48.4571 59.7542 47.4222 59.4025 46.0324 59.4025H41.3308V67.3841Z" fill="white"/>
<path d="M70.2654 63.1181C71.0047 61.9254 72.0248 60.9622 73.3259 60.2282C74.627 59.4943 76.1499 59.1273 77.8945 59.1273C79.9348 59.1273 81.7829 59.6625 83.4388 60.7328C85.0948 61.8031 86.3958 63.3321 87.3421 65.3199C88.3179 67.3076 88.8058 69.6165 88.8058 72.2464C88.8058 74.8763 88.3179 77.2004 87.3421 79.2188C86.3958 81.2065 85.0948 82.7508 83.4388 83.8517C81.7829 84.922 79.9348 85.4572 77.8945 85.4572C76.1794 85.4572 74.6566 85.0902 73.3259 84.3563C72.0248 83.6224 71.0047 82.6744 70.2654 81.5123V97.2919H62.6807V59.4943H70.2654V63.1181ZM81.088 72.2464C81.088 70.2892 80.5558 68.7602 79.4913 67.6593C78.4563 66.5278 77.17 65.9621 75.6324 65.9621C74.1243 65.9621 72.838 66.5278 71.7735 67.6593C70.7386 68.7908 70.2211 70.3351 70.2211 72.2923C70.2211 74.2494 70.7386 75.7937 71.7735 76.9252C72.838 78.0567 74.1243 78.6224 75.6324 78.6224C77.1404 78.6224 78.4267 78.0567 79.4913 76.9252C80.5558 75.7632 81.088 74.2035 81.088 72.2464Z" fill="white"/>
<path d="M71.8289 35.8783C71.8289 34.9478 71.1592 34.1935 70.3332 34.1935H67.7752C62.1666 34.1935 57.6199 39.3152 57.6199 45.6331C57.6199 46.4825 58.2312 47.1712 58.9853 47.1712H62.0239C67.439 47.1712 71.8289 42.2262 71.8289 36.1263V35.8783Z" fill="white"/>
<path fill-rule="evenodd" clip-rule="evenodd" d="M47.529 22.5135C46.7393 22.5135 46.0991 23.2347 46.0991 24.1242C46.0991 29.2075 49.7573 33.3283 54.2699 33.3283H70.691C71.3194 33.3283 71.8289 32.7544 71.8289 32.0465C71.8289 26.7816 68.04 22.5135 63.366 22.5135H47.529ZM49.5554 27.0557C50.2977 27.0557 50.8994 26.3778 50.8994 25.5417C50.8994 24.7055 50.2977 24.0276 49.5554 24.0276C48.813 24.0276 48.2113 24.7055 48.2113 25.5417C48.2113 26.3778 48.813 27.0557 49.5554 27.0557Z" fill="white"/>
<defs>
<filter id="filter0_i_801_1813" x="10.6567" y="10.6567" width="97.6865" height="97.6866" filterUnits="userSpaceOnUse" color-interpolation-filters="sRGB">
<feFlood flood-opacity="0" result="BackgroundImageFix"/>
<feBlend mode="normal" in="SourceGraphic" in2="BackgroundImageFix" result="shape"/>
<feColorMatrix in="SourceAlpha" type="matrix" values="0 0 0 0 0 0 0 0 0 0 0 0 0 0 0 0 0 0 127 0" result="hardAlpha"/>
<feOffset dx="4"/>
<feComposite in2="hardAlpha" operator="arithmetic" k2="-1" k3="1"/>
<feColorMatrix type="matrix" values="0 0 0 0 0 0 0 0 0 0 0 0 0 0 0 0 0 0 0.21 0"/>
<feBlend mode="normal" in2="shape" result="effect1_innerShadow_801_1813"/>
</filter>
</defs>
</svg>
