<svg width="121" height="99" viewBox="0 0 121 99" fill="none" xmlns="http://www.w3.org/2000/svg">
<path d="M14.5757 39.5924C14.5757 32.4842 20.3381 26.7218 27.4463 26.7218H107.79C114.898 26.7218 120.661 32.4842 120.661 39.5924V85.2246C120.661 92.3328 114.898 98.0952 107.79 98.0952H27.4463C20.3381 98.0952 14.5757 92.3328 14.5757 85.2246V39.5924Z" fill="#1B77DF" fill-opacity="0.4"/>
<g filter="url(#filter0_i_801_1934)">
<path d="M0 18.7209C0 8.38163 8.38163 0 18.7209 0H88.9242C99.2635 0 107.645 8.38163 107.645 18.7209V66.3031C107.645 76.6424 99.2635 85.024 88.9242 85.024H18.7209C8.38163 85.024 0 76.6424 0 66.3031V18.7209Z" fill="#1A78DC"/>
</g>
<path fill-rule="evenodd" clip-rule="evenodd" d="M14.821 17.3558C14.821 16.3865 15.6068 15.6007 16.5761 15.6007H91.8496C92.8189 15.6007 93.6047 16.3865 93.6047 17.3558C93.6047 18.3251 92.8189 19.1109 91.8496 19.1109H16.5761C15.6068 19.1109 14.821 18.3251 14.821 17.3558ZM55.5779 28.8614C55.5779 27.8921 56.3637 27.1063 57.333 27.1063L91.6546 27.1063C92.6239 27.1063 93.4097 27.8921 93.4097 28.8614C93.4097 29.8307 92.6239 30.6165 91.6546 30.6165L57.333 30.6164C56.3637 30.6164 55.5779 29.8307 55.5779 28.8614ZM55.5779 40.1719C55.5779 39.2026 56.3637 38.4168 57.333 38.4168L91.6546 38.4168C92.6239 38.4168 93.4097 39.2026 93.4097 40.1719C93.4097 41.1412 92.6239 41.927 91.6546 41.927L57.333 41.927C56.3637 41.927 55.5779 41.1412 55.5779 40.1719ZM55.5779 50.7024C55.5779 49.7331 56.3637 48.9473 57.333 48.9473L91.6546 48.9473C92.6239 48.9473 93.4097 49.7331 93.4097 50.7024C93.4097 51.6717 92.6239 52.4575 91.6546 52.4575L57.333 52.4575C56.3637 52.4575 55.5779 51.6717 55.5779 50.7024ZM55.5779 61.6229C55.5779 60.6536 56.3637 59.8678 57.333 59.8678L91.6546 59.8678C92.6239 59.8678 93.4097 60.6536 93.4097 61.6229C93.4097 62.5922 92.6239 63.378 91.6546 63.378H57.333C56.3637 63.378 55.5779 62.5922 55.5779 61.6229ZM14.626 72.5434C14.626 71.5741 15.4118 70.7883 16.3811 70.7883L91.6546 70.7883C92.6239 70.7883 93.4097 71.5741 93.4097 72.5434C93.4097 73.5127 92.6239 74.2985 91.6546 74.2985L16.3811 74.2985C15.4118 74.2985 14.626 73.5127 14.626 72.5434Z" fill="white"/>
<path d="M46.8023 47.8689C46.8023 46.7356 45.9294 45.8169 44.8525 45.8169H41.518C34.2065 45.8169 28.2794 52.0548 28.2794 59.7496C28.2794 60.7842 29.0763 61.6229 30.0593 61.6229H34.0205C41.0797 61.6229 46.8023 55.6003 46.8023 48.171V47.8689Z" fill="white"/>
<path fill-rule="evenodd" clip-rule="evenodd" d="M15.1247 31.5915C14.0953 31.5915 13.2607 32.4698 13.2607 33.5532C13.2607 39.7443 18.0296 44.7632 23.9123 44.7632H45.319C46.1382 44.7632 46.8023 44.0642 46.8023 43.2021C46.8023 36.7897 41.8631 31.5915 35.7701 31.5915H15.1247ZM17.7663 37.1236C18.7341 37.1236 19.5185 36.298 19.5185 35.2796C19.5185 34.2611 18.7341 33.4355 17.7663 33.4355C16.7986 33.4355 16.0142 34.2611 16.0142 35.2796C16.0142 36.298 16.7986 37.1236 17.7663 37.1236Z" fill="white"/>
<defs>
<filter id="filter0_i_801_1934" x="0" y="0" width="107.645" height="85.024" filterUnits="userSpaceOnUse" color-interpolation-filters="sRGB">
<feFlood flood-opacity="0" result="BackgroundImageFix"/>
<feBlend mode="normal" in="SourceGraphic" in2="BackgroundImageFix" result="shape"/>
<feColorMatrix in="SourceAlpha" type="matrix" values="0 0 0 0 0 0 0 0 0 0 0 0 0 0 0 0 0 0 127 0" result="hardAlpha"/>
<feOffset dx="4" dy="-4"/>
<feComposite in2="hardAlpha" operator="arithmetic" k2="-1" k3="1"/>
<feColorMatrix type="matrix" values="0 0 0 0 0 0 0 0 0 0 0 0 0 0 0 0 0 0 0.25 0"/>
<feBlend mode="normal" in2="shape" result="effect1_innerShadow_801_1934"/>
</filter>
</defs>
</svg>
