<svg width="122" height="112" viewBox="0 0 122 112" fill="none" xmlns="http://www.w3.org/2000/svg">
<path d="M58.5059 23.7794C58.5059 22.3484 57.4961 21.1884 56.2503 21.1884H52.3928C43.9345 21.1884 37.0778 29.0649 37.0778 38.7811C37.0778 40.0874 37.9997 41.1465 39.1369 41.1465H43.7194C51.8858 41.1465 58.5059 33.5417 58.5059 24.1608V23.7794Z" fill="#1A78DC"/>
<path fill-rule="evenodd" clip-rule="evenodd" d="M21.86 3.22604C20.669 3.22604 19.7036 4.33507 19.7036 5.70312C19.7036 13.5205 25.2204 19.8578 32.0257 19.8578H56.79C57.7376 19.8578 58.5059 18.9753 58.5059 17.8866C58.5059 9.78982 52.792 3.22604 45.7434 3.22604H21.86ZM24.9159 10.2114C26.0354 10.2114 26.9428 9.16891 26.9428 7.88294C26.9428 6.59697 26.0354 5.55449 24.9159 5.55449C23.7963 5.55449 22.8889 6.59697 22.8889 7.88294C22.8889 9.16891 23.7963 10.2114 24.9159 10.2114Z" fill="#1A78DC"/>
<g filter="url(#filter0_i_801_1906)">
<path fill-rule="evenodd" clip-rule="evenodd" d="M8.43359 72.3105L31.3574 49.3867L47.6016 65.631L103.384 9.84831C114.838 20.5238 122 35.7433 122 52.6356C122 84.9328 95.8179 111.115 63.5207 111.115C38.1264 111.115 16.5127 94.9287 8.43359 72.3105Z" fill="#1A78DC"/>
</g>
<path d="M109.125 4.10791L103.384 9.84817L47.6016 65.631L31.3574 49.3867L8.43383 72.3103L2.55908 78.185M109.125 4.10791V19.9816M109.125 4.10791H92.8988" stroke="#A4C9F2" stroke-width="7"/>
<defs>
<filter id="filter0_i_801_1906" x="8.43359" y="9.84831" width="113.566" height="101.267" filterUnits="userSpaceOnUse" color-interpolation-filters="sRGB">
<feFlood flood-opacity="0" result="BackgroundImageFix"/>
<feBlend mode="normal" in="SourceGraphic" in2="BackgroundImageFix" result="shape"/>
<feColorMatrix in="SourceAlpha" type="matrix" values="0 0 0 0 0 0 0 0 0 0 0 0 0 0 0 0 0 0 127 0" result="hardAlpha"/>
<feOffset dx="2" dy="11"/>
<feComposite in2="hardAlpha" operator="arithmetic" k2="-1" k3="1"/>
<feColorMatrix type="matrix" values="0 0 0 0 0 0 0 0 0 0 0 0 0 0 0 0 0 0 0.25 0"/>
<feBlend mode="normal" in2="shape" result="effect1_innerShadow_801_1906"/>
</filter>
</defs>
</svg>
