<svg width="104" height="88" viewBox="0 0 104 88" fill="none" xmlns="http://www.w3.org/2000/svg">
<path d="M103.5 47.2407C103.5 43.9516 100.917 41.2853 97.7298 41.2853H87.8615C66.2238 41.2853 48.683 59.3891 48.683 81.7211C48.683 84.7238 51.0414 87.1579 53.9507 87.1579H65.6734C86.5645 87.1579 103.5 69.6789 103.5 48.1174V47.2407Z" fill="#1A78DC"/>
<path fill-rule="evenodd" clip-rule="evenodd" d="M9.75316 0C6.70653 0 4.23682 2.54902 4.23682 5.6934C4.23682 23.6613 18.3498 38.2271 35.759 38.2271H99.1103C101.534 38.2271 103.5 36.1987 103.5 33.6965C103.5 15.0864 88.8828 0 70.8511 0H9.75316ZM17.5707 16.0554C20.4346 16.0554 22.7561 13.6593 22.7561 10.7036C22.7561 7.74788 20.4346 5.3518 17.5707 5.3518C14.7067 5.3518 12.3853 7.74788 12.3853 10.7036C12.3853 13.6593 14.7067 16.0554 17.5707 16.0554Z" fill="#1A78DC"/>
<path fill-rule="evenodd" clip-rule="evenodd" d="M10.35 50.665V41.1579H18.7026V50.665L28.4474 50.665V58.8139H18.7026V69H10.35V58.8139H0V50.665L10.35 50.665Z" fill="#A4C9F2"/>
<path fill-rule="evenodd" clip-rule="evenodd" d="M21.1316 74.6491V69H26.6052V74.6491L32.0789 74.6491V80.2982H26.6052V85.9474H21.1316V80.2982H15.7368V74.6491H21.1316Z" fill="#A4C9F2"/>
<path fill-rule="evenodd" clip-rule="evenodd" d="M35.0263 62.9474V59.3158H38.3947V62.9474L41.7631 62.9474V66.579H38.3947V70.2105H35.0263V66.579H31.4736V62.9474H35.0263Z" fill="#A4C9F2"/>
</svg>
