<svg width="134" height="123" viewBox="0 0 134 123" fill="none" xmlns="http://www.w3.org/2000/svg">
<g filter="url(#filter0_i_801_1799)">
<path d="M4.19429 76.85C3.57407 74.1095 4.49315 71.3658 6.17747 69.9616C7.57639 68.7954 9.55926 69.4522 11.1626 70.3161L18.0725 74.039C21.3295 75.7937 25.2504 75.7937 28.5074 74.0389L32.6426 71.811C35.8995 70.0563 39.8205 70.0563 43.0775 71.811L47.2126 74.039C50.4696 75.7937 54.3905 75.7937 57.6475 74.0389L61.7827 71.811C65.0396 70.0563 68.9606 70.0563 72.2176 71.811L76.3527 74.039C79.6097 75.7937 83.5306 75.7937 86.7876 74.0389L90.9228 71.811C94.1798 70.0563 98.1007 70.0563 101.358 71.811L105.493 74.039C108.75 75.7937 112.671 75.7937 115.928 74.039L122.838 70.3161C124.441 69.4522 126.424 68.7956 127.823 69.9618C129.488 71.3501 130.407 74.0484 129.824 76.7658L122.882 109.148C121.126 117.335 115.382 123 108.836 123H25.5509C19.0818 123 13.3863 117.466 11.5627 109.408L4.19429 76.85Z" fill="#1A78DC"/>
</g>
<path d="M129.824 76.7658C130.407 74.0484 129.488 71.3501 127.823 69.9618C126.424 68.7956 124.441 69.4522 122.838 70.3161L115.928 74.039C112.671 75.7937 108.75 75.7937 105.493 74.039L101.358 71.811C98.1007 70.0563 94.1798 70.0563 90.9228 71.811L86.7876 74.0389C83.5306 75.7937 79.6097 75.7937 76.3527 74.0389L72.2176 71.811C68.9606 70.0563 65.0397 70.0563 61.7827 71.811L57.6475 74.0389C54.3905 75.7937 50.4696 75.7937 47.2126 74.039L43.0775 71.811C39.8205 70.0563 35.8995 70.0563 32.6426 71.811L28.5074 74.0389C25.2504 75.7937 21.3295 75.7937 18.0725 74.039L11.1626 70.3161C9.55926 69.4522 7.57639 68.7954 6.17747 69.9616C4.49315 71.3658 3.57407 74.1095 4.19429 76.85" stroke="#A4C9F2" stroke-width="7"/>
<path d="M85 27.6427C85 25.7181 83.5426 24.1579 81.7447 24.1579H76.1774C63.9704 24.1579 54.0746 34.7512 54.0746 47.8187C54.0746 49.5757 55.4051 51 57.0464 51H63.6599C75.4457 51 85 40.7722 85 28.1557V27.6427Z" fill="#1A78DC"/>
<path fill-rule="evenodd" clip-rule="evenodd" d="M32.1121 0C30.3933 0 29 1.49155 29 3.33147C29 13.8453 36.9619 22.3684 46.7834 22.3684H82.5236C83.8912 22.3684 85 21.1815 85 19.7173C85 8.82776 76.7536 0 66.5809 0H32.1121ZM36.5224 9.39474C38.1381 9.39474 39.4478 7.99268 39.4478 6.26316C39.4478 4.53363 38.1381 3.13158 36.5224 3.13158C34.9067 3.13158 33.597 4.53363 33.597 6.26316C33.597 7.99268 34.9067 9.39474 36.5224 9.39474Z" fill="#1A78DC"/>
<defs>
<filter id="filter0_i_801_1799" x="4" y="69.3331" width="126" height="53.6669" filterUnits="userSpaceOnUse" color-interpolation-filters="sRGB">
<feFlood flood-opacity="0" result="BackgroundImageFix"/>
<feBlend mode="normal" in="SourceGraphic" in2="BackgroundImageFix" result="shape"/>
<feColorMatrix in="SourceAlpha" type="matrix" values="0 0 0 0 0 0 0 0 0 0 0 0 0 0 0 0 0 0 127 0" result="hardAlpha"/>
<feOffset dy="11"/>
<feComposite in2="hardAlpha" operator="arithmetic" k2="-1" k3="1"/>
<feColorMatrix type="matrix" values="0 0 0 0 0 0 0 0 0 0 0 0 0 0 0 0 0 0 0.25 0"/>
<feBlend mode="normal" in2="shape" result="effect1_innerShadow_801_1799"/>
</filter>
</defs>
</svg>
